<?xml version="1.0" encoding="utf-8"?>
<!-- Generator: Adobe Illustrator 16.0.0, SVG Export Plug-In . SVG Version: 6.00 Build 0)  -->
<!DOCTYPE svg PUBLIC "-//W3C//DTD SVG 1.1//EN" "http://www.w3.org/Graphics/SVG/1.1/DTD/svg11.dtd">
<svg version="1.1" id="Шар_1" xmlns="http://www.w3.org/2000/svg" xmlns:xlink="http://www.w3.org/1999/xlink" x="0px" y="0px"
	 width="492px" height="429.754px" viewBox="0 0 492 429.754" enable-background="new 0 0 492 429.754" xml:space="preserve">
<path fill="#FFFFFF" stroke="#FFFFFF" stroke-width="6" stroke-miterlimit="10" d="M109,318.754H65c-28.673,0-54-25.362-54-54.035
	v-58.471c0-28.673,25.327-50.494,54-50.494h24.602c-8.508-1-16.414-4-23.217-8H65c-33,0-62,25.494-62,58.494v58.471
	c0,33,29,62.035,62,62.035h44V318.754z"/>
<path fill="#FFFFFF" stroke="#FFFFFF" stroke-width="6" stroke-miterlimit="10" d="M123.471,154.754
	c12.202,0,23.343,3.825,32.125,10.992c2.444-1.445,4.962-2.527,7.546-3.741c-10.513-9.602-24.396-15.25-39.671-15.25h-1.385
	c-6.804,4-14.709,7-23.217,8H123H123.471z"/>
<path fill="#FFFFFF" stroke="#FFFFFF" stroke-width="6" stroke-miterlimit="10" d="M339.536,165.64
	c8.762-7.103,19.851-10.886,31.993-10.886h24.602c-8.508-1-16.413-4-23.217-8h-1.385c-15.219,0-29.054,5.607-39.553,15.146
	C334.565,163.112,337.088,164.194,339.536,165.64z"/>
<path fill="#FFFFFF" stroke="#FFFFFF" stroke-width="6" stroke-miterlimit="10" d="M430,146.754h-1.385c-6.803,4-14.709,7-23.217,8
	H430c28.673,0,51,22.821,51,51.494v58.471c0,28.673-22.327,53.035-51,53.035h-47v8h47c33,0,59-28.035,59-61.035v-58.471
	C489,173.248,463,146.754,430,146.754z"/>
<g>
	<path fill="#FFFFFF" stroke="#FFFFFF" stroke-width="6" stroke-miterlimit="10" d="M400.765,158.504
		c-30.814,0-55.885-25.07-55.885-55.885s25.07-55.885,55.885-55.885s55.885,25.07,55.885,55.885S431.579,158.504,400.765,158.504z
		 M400.765,55.799c-25.816,0-46.82,21.003-46.82,46.82c0,25.817,21.004,46.821,46.82,46.821s46.82-21.003,46.82-46.821
		C447.585,76.802,426.581,55.799,400.765,55.799z"/>
</g>
<g>
	<path fill="#FFFFFF" stroke="#FFFFFF" stroke-width="6" stroke-miterlimit="10" d="M94.235,158.504
		c-30.814,0-55.885-25.07-55.885-55.885s25.07-55.885,55.885-55.885s55.885,25.07,55.885,55.885S125.05,158.504,94.235,158.504z
		 M94.235,55.799c-25.816,0-46.82,21.003-46.82,46.82c0,25.817,21.004,46.821,46.82,46.821s46.82-21.003,46.82-46.821
		C141.056,76.802,120.052,55.799,94.235,55.799z"/>
</g>
<g>
	<path fill="#2F90FF" stroke="#2F90FF" stroke-width="6" stroke-miterlimit="10" d="M247.709,169.17
		c-45.814,0-83.087-37.271-83.087-83.084C164.622,40.272,201.895,3,247.709,3s83.088,37.272,83.088,83.086
		C330.797,131.899,293.523,169.17,247.709,169.17z M247.709,12.064c-40.816,0-74.022,33.206-74.022,74.021
		c0,40.815,33.206,74.02,74.022,74.02s74.023-33.205,74.023-74.02C321.732,45.271,288.525,12.064,247.709,12.064z"/>
</g>
<g>
	<path fill="#2F90FF" stroke="#2F90FF" stroke-width="6" stroke-miterlimit="10" d="M294.209,153.754h-4.968
		c-5.318,3-11.062,6-17.13,8H294h0.209c21.804,0,41.764,8.091,57.301,23.628c15.538,15.538,23.49,35.636,23.49,57.44v93
		c0,21.804-7.952,42.834-23.49,58.371c-15.537,15.538-35.497,24.561-57.301,24.561h-93c-21.804,0-42.973-9.022-58.51-24.561
		C127.161,378.656,118,357.626,118,335.822v-93c0-21.804,9.161-41.902,24.699-57.44c15.537-15.538,36.706-23.628,58.51-23.628
		h22.098c-6.068-2-11.812-5-17.129-8h-4.969c-49.5,0-91.209,39.568-91.209,89.068v93c0,49.5,41.709,90.932,91.209,90.932h93
		c49.5,0,88.791-41.432,88.791-90.932v-93C383,193.322,343.709,153.754,294.209,153.754z"/>
</g>
</svg>
