<?xml version="1.0" encoding="utf-8"?>
<!-- Generator: Adobe Illustrator 16.0.0, SVG Export Plug-In . SVG Version: 6.00 Build 0)  -->
<!DOCTYPE svg PUBLIC "-//W3C//DTD SVG 1.1//EN" "http://www.w3.org/Graphics/SVG/1.1/DTD/svg11.dtd">
<svg version="1.1" id="Шар_1" xmlns="http://www.w3.org/2000/svg" xmlns:xlink="http://www.w3.org/1999/xlink" x="0px" y="0px"
	 width="520px" height="640px" viewBox="0 0 520 640" enable-background="new 0 0 520 640" xml:space="preserve">
<g display="none">
	<path display="inline" fill="#1C2A33" d="M497.688,36C512.024,36,524,48.026,524,62.362v100C524,176.699,512.024,188,497.688,188
		h-450C33.351,188,22,176.699,22,162.362v-100C22,48.026,33.351,36,47.688,36H498 M497.688,12h-450C20.188,12-2,34.862-2,62.362v100
		C-2,189.862,20.188,212,47.688,212h450c27.5,0,50.313-22.138,50.313-49.638v-100C548,34.862,525.188,12,497.688,12L497.688,12z"/>
</g>
<path fill="#FFFFFF" d="M469.504,85C483.841,85,496,96.589,496,110.926v19.854C496,145.116,483.841,157,469.504,157H50.139
	C35.803,157,24,145.116,24,130.779v-19.854C24,96.589,35.803,85,50.139,85H470 M469.504,61H50.139C22.639,61,0,83.426,0,110.926
	v19.854C0,158.279,22.639,181,50.139,181h419.365c27.5,0,50.496-22.721,50.496-50.221v-19.854C520,83.426,497.004,61,469.504,61
	L469.504,61z"/>
<path fill="#2F90FF" d="M375.399,398.857l-60.28-60.278c-4.667-4.667-12.304-4.667-16.971-0.001
	c-4.666,4.667-4.666,12.304,0.001,16.971l51.93,51.928l-51.928,51.928c-4.667,4.667-4.667,12.304-0.001,16.971s12.303,4.667,16.97,0
	l60.279-60.278c2.367-2.367,3.528-5.499,3.494-8.62C378.928,404.356,377.767,401.225,375.399,398.857z"/>
<path fill="#2F90FF" d="M169.564,407.477l51.93-51.928c4.667-4.667,4.667-12.304,0-16.971c-4.667-4.666-12.303-4.666-16.97,0.001
	l-60.28,60.278c-2.368,2.367-3.528,5.499-3.494,8.619c-0.034,3.121,1.126,6.253,3.494,8.62l60.279,60.278
	c4.667,4.667,12.303,4.667,16.97,0s4.666-12.304-0.001-16.971L169.564,407.477z"/>
<path fill="#FFFFFF" d="M451.658,181l-29.903,407.414C420.655,603.387,407.043,616,392.03,616H127.612
	c-15.013,0-28.625-12.649-29.724-27.623L67.989,181H43.915l30.038,409.207c2.013,27.427,26.16,49.793,53.66,49.793H392.03
	c27.5,0,51.646-22.439,53.66-49.866L475.727,181H451.658z"/>
<path fill="#FFFFFF" d="M150.107,85c-0.066-0.751-0.107-1.509-0.107-2.275V50c0-14.336,11.845-26,26.181-26H343
	c14.337,0,26,11.664,26,26v32.725c0,0.767-0.038,1.524-0.102,2.275h24.045c0.033-0.755,0.057-1.513,0.057-2.275V50
	c0-27.5-22.27-50-49.77-50H176.181C148.681,0,126,22.5,126,50v32.725c0,0.763,0.024,1.521,0.059,2.275H150.107z"/>
</svg>
