<?xml version="1.0" encoding="utf-8"?>
<!-- Generator: Adobe Illustrator 16.0.0, SVG Export Plug-In . SVG Version: 6.00 Build 0)  -->
<!DOCTYPE svg PUBLIC "-//W3C//DTD SVG 1.1//EN" "http://www.w3.org/Graphics/SVG/1.1/DTD/svg11.dtd">
<svg version="1.1" id="Шар_1" xmlns="http://www.w3.org/2000/svg" xmlns:xlink="http://www.w3.org/1999/xlink" x="0px" y="0px"
	 width="640px" height="640px" viewBox="0 0 640 640" enable-background="new 0 0 640 640" xml:space="preserve">
<path fill="#2F90FF" d="M437.582,445.493l35.989-257.116c1.905-13.617-1.33-23.358-8.077-28.083
	c-6.748-4.725-17.008-4.434-29.152,2.015l-229.3,121.757c-20.054,10.648-22.688,24.951-8.453,34.918
	c3.005,2.104,6.763,4.017,11.267,5.658l35.555,12.963l5.246,1.912c1.934,0.705,3.633,1.586,5.145,2.645
	c8.181,5.729,9.972,16.07,3.581,25.197l-5.325,7.605l-36.135,51.606l-24.809,35.431c-15.773,22.526-10.248,53.861,12.279,69.635
	c22.526,15.774,53.863,10.249,69.636-12.277l24.81-35.431l36.136-51.606l5.235-7.478c6.396-9.135,16.805-10.949,24.999-5.214
	c1.505,1.055,2.75,2.233,4.07,3.8l3.313,3.984l-0.016,0.022l24.667,29.189c3.075,3.651,6.247,6.584,9.243,8.683
	C421.753,475.302,434.432,468.001,437.582,445.493z M394.886,415.29L394.886,415.29l-6.038-7.17c-0.004-0.003-0.207-0.146-0.21-0.15
	l-0.819-0.875l-0.016,0.023c-1.947-2.449-5.055-5.202-8.031-7.286c-19.359-13.553-44.291-8.648-58.223,11.248l-5.236,7.478
	l-36.135,51.606l-24.81,35.431c-8.223,11.743-24.467,14.607-36.211,6.385c-11.743-8.225-14.608-24.467-6.385-36.211l24.809-35.431
	l36.135-51.606l5.324-7.604c13.926-19.888,9.668-45.22-9.675-58.764c-3.061-2.144-6.32-3.821-10.137-5.345l0.03-0.043
	l-37.714-13.684l225.953-119.855c0.906-0.481,1.783-0.837,2.524-1.153c-0.043,0.804-0.103,1.732-0.244,2.75l-35.449,253.349
	L394.886,415.29z"/>
<path fill="#FFFFFF" d="M500.396,85h-450C22.896,85,0,107.268,0,134.768v200C0,362.268,22.896,385,50.396,385h196.635l7.026-10.034
	l5.325-7.605c1.457-2.08,2.467-4.223,3.095-6.36H50.396C36.06,361,24,349.104,24,334.768v-200C24,120.432,36.06,109,50.396,109H500
	h0.396C514.733,109,526,120.432,526,134.768v200C526,349.104,514.733,361,500.396,361h-50.987l-3.359,24h54.347
	c27.5,0,49.604-22.732,49.604-50.232v-200C550,107.268,527.896,85,500.396,85z"/>
<path fill="#FFFFFF" d="M589.965,0h-0.036h-450C112.429,0,90,22.5,90,50v59h24V50c0-14.336,11.592-26,25.929-26H590
	c14.337,0,26,11.664,26,26v540.283C616,604.619,604.266,616,589.929,616h-450C125.592,616,114,604.619,114,590.283V361H90v229.283
	c0,27.5,22.429,49.717,49.929,49.717h450c27.5,0,50.071-22.217,50.071-49.717V50C640,22.5,617.465,0,589.965,0z"/>
</svg>
