<?xml version="1.0" encoding="utf-8"?>
<!-- Generator: Adobe Illustrator 16.0.0, SVG Export Plug-In . SVG Version: 6.00 Build 0)  -->
<!DOCTYPE svg PUBLIC "-//W3C//DTD SVG 1.1//EN" "http://www.w3.org/Graphics/SVG/1.1/DTD/svg11.dtd">
<svg version="1.1" id="Шар_1" xmlns="http://www.w3.org/2000/svg" xmlns:xlink="http://www.w3.org/1999/xlink" x="0px" y="0px"
	 width="640px" height="639.042px" viewBox="0 0 640 639.042" enable-background="new 0 0 640 639.042" xml:space="preserve">
<path fill="#FFFFFF" d="M590,163.042c14.336,0,26,11.663,26,26v100c0,14.336-11.664,26-26,26H50c-14.336,0-26-11.664-26-26v-100
	c0-14.336,11.664-26,26-26H590 M590,139.042H50c-27.5,0-50,22.5-50,50v100c0,27.5,22.5,50,50,50h540c27.5,0,50-22.5,50-50v-100
	C640,161.542,617.5,139.042,590,139.042L590,139.042z"/>
<path fill="#2F90FF" d="M346,163.042v452h-52v-452H346 M370,139.042H270v500h100V139.042L370,139.042z"/>
<path fill="#2F90FF" d="M346,163.042v152h-52v-152H346 M370,139.042H270v200h100V139.042L370,139.042z"/>
<path fill="#2F90FF" d="M163.15,139.042h29.299l-24.413-34.865c-7.766-11.091-10.734-24.619-8.359-38.093
	c2.376-13.473,9.792-25.17,20.884-32.936C189.107,27.164,199.164,24,209.642,24c16.764,0,32.445,8.102,41.948,21.673l53.761,76.779
	l-11.617,16.591h52.533l-11.613-16.585l53.757-76.763c9.502-13.569,25.185-21.652,41.951-21.652h0.004
	c10.474,0,20.527,3.143,29.075,9.127c11.091,7.767,18.507,19.453,20.883,32.926s-0.593,26.996-8.358,38.087l-24.41,34.86h29.295
	l14.774-21.1c23.66-33.79,15.372-80.794-18.418-104.454C460.187,4.372,445.211-0.001,430.358,0
	c-23.693,0.002-47.063,11.137-61.607,31.907L320,101.53l-48.75-69.623C256.706,11.137,233.335,0,209.642,0
	c-14.853,0-29.828,4.372-42.848,13.489c-33.79,23.66-42.078,70.664-18.418,104.454L163.15,139.042z"/>
<path fill="#FFFFFF" d="M571,339.042v250c0,14.337-11.663,26-26,26H95c-14.336,0-26-11.663-26-26v-250H45v250c0,27.5,22.5,50,50,50
	h450c27.5,0,50-22.5,50-50v-250H571z"/>
</svg>
