<?xml version="1.0" encoding="utf-8"?>
<!-- Generator: Adobe Illustrator 16.0.0, SVG Export Plug-In . SVG Version: 6.00 Build 0)  -->
<!DOCTYPE svg PUBLIC "-//W3C//DTD SVG 1.1//EN" "http://www.w3.org/Graphics/SVG/1.1/DTD/svg11.dtd">
<svg version="1.1" id="Шар_1" xmlns="http://www.w3.org/2000/svg" xmlns:xlink="http://www.w3.org/1999/xlink" x="0px" y="0px"
	 width="640px" height="553px" viewBox="0 0 640 553" enable-background="new 0 0 640 553" xml:space="preserve">
<path fill="#FFFFFF" d="M308,440H182.41c-5.749,0-10.41,4.66-10.41,10.409v3.182c0,5.749,4.661,10.409,10.41,10.409H308V440z"/>
<path fill="#FFFFFF" d="M308,440h-82.479c-0.015,0-0.521,0.019-0.521,0.004V353h-24v87.047c0,13.2,11.278,23.953,24.479,23.953H308
	V440z"/>
<path fill="#FFFFFF" d="M459,292H12c-6.627,0-12,5.373-12,12s5.373,12,12,12h447V292z"/>
<rect x="380" y="353" fill="#FFFFFF" width="79" height="24"/>
<path fill="#FFFFFF" d="M526,50.006V257h24V50.006C550,22.506,527.929,0,500.429,0h-450C22.929,0,0,22.506,0,50.006v276.496
	C0,354.002,22.929,377,50.429,377H308v-24H50.429C36.092,353,24,340.839,24,326.502V50.006C24,35.67,36.092,24,50.429,24H500h0.429
	C514.766,24,526,35.67,526,50.006z"/>
<path fill="#2F90FF" d="M378.831,357c0.495,0,1.169,0.528,1.169,1.023v170c0,0.495-0.674,0.977-1.169,0.977h-70
	c-0.495,0-0.831-0.481-0.831-0.977v-170c0-0.495,0.336-1.023,0.831-1.023H379 M378.831,333h-70C295.081,333,284,344.273,284,358.023
	v170c0,13.75,11.081,24.977,24.831,24.977h70c13.75,0,25.169-11.227,25.169-24.977v-170C404,344.273,392.581,333,378.831,333
	L378.831,333z"/>
<path fill="#2F90FF" d="M605.038,257c5.963,0,10.962,5.061,10.962,11.023v220c0,5.963-4.999,10.977-10.962,10.977h-135
	c-5.963,0-11.038-5.014-11.038-10.977v-220c0-5.963,5.075-11.023,11.038-11.023H605 M605.038,233h-135
	C450.788,233,435,248.773,435,268.023v220c0,19.25,15.788,34.977,35.038,34.977h135c19.25,0,34.962-15.727,34.962-34.977v-220
	C640,248.773,624.288,233,605.038,233L605.038,233z"/>
</svg>
