<?xml version="1.0" encoding="utf-8"?>
<!-- Generator: Adobe Illustrator 16.0.0, SVG Export Plug-In . SVG Version: 6.00 Build 0)  -->
<!DOCTYPE svg PUBLIC "-//W3C//DTD SVG 1.1//EN" "http://www.w3.org/Graphics/SVG/1.1/DTD/svg11.dtd">
<svg version="1.1" id="Шар_1" xmlns="http://www.w3.org/2000/svg" xmlns:xlink="http://www.w3.org/1999/xlink" x="0px" y="0px"
	 width="499.813px" height="498.361px" viewBox="0 0 499.813 498.361" enable-background="new 0 0 499.813 498.361"
	 xml:space="preserve">
<g>
	<path fill="#2F90FF" d="M175.045,87.991c-4.709-7.685-7.429-16.714-7.429-26.369c0-27.914,22.709-50.623,50.622-50.623
		s50.622,22.709,50.622,50.623c0,3.652-0.397,7.211-1.136,10.645c2.689,0.194,5.363,0.438,8.021,0.738
		c0.726-3.684,1.114-7.487,1.114-11.383C276.86,29.247,250.614,3,218.238,3c-32.377,0-58.622,26.247-58.622,58.623
		c0,10.859,2.964,21.02,8.109,29.741C170.139,90.193,172.577,89.064,175.045,87.991z"/>
	<path fill="#2F90FF" d="M166.547,95.269l-1.405-2.381c-5.577-9.453-8.525-20.264-8.525-31.265C156.616,27.644,184.26,0,218.238,0
		s61.622,27.644,61.622,61.623c0,3.994-0.394,8.019-1.171,11.963l-0.534,2.712l-2.746-0.311c-2.547-0.288-5.205-0.533-7.9-0.727
		l-3.442-0.248l0.726-3.375c0.709-3.299,1.068-6.668,1.068-10.015C265.86,35.363,244.497,14,218.238,14
		s-47.622,21.363-47.622,47.623c0,8.766,2.416,17.342,6.987,24.801l1.803,2.942l-3.165,1.376c-2.309,1.004-4.733,2.121-7.207,3.321
		L166.547,95.269z M218.238,6c-30.67,0-55.622,24.952-55.622,55.623c0,9.012,2.191,17.882,6.359,25.821
		c0.613-0.287,1.222-0.569,1.826-0.845c-4.055-7.677-6.185-16.244-6.185-24.977C164.616,32.055,188.671,8,218.238,8
		s53.622,24.055,53.622,53.623c0,2.64-0.198,5.292-0.592,7.919c0.67,0.059,1.337,0.121,1.997,0.186
		c0.396-2.689,0.595-5.406,0.595-8.105C273.86,30.952,248.908,6,218.238,6z"/>
</g>
<path fill="#FFFFFF" d="M352.81,217.348c4.633,0,8.4,3.768,8.4,8.4s-3.768,8.4-8.4,8.4s-8.4-3.768-8.4-8.4
	S348.177,217.348,352.81,217.348 M352.81,207.748c-9.902,0-18,8.101-18,18c0,9.902,8.098,18,18,18s18-8.098,18-18
	C370.81,215.849,362.712,207.748,352.81,207.748L352.81,207.748z"/>
<path fill="#FFFFFF" d="M483.376,214.748l-6.062,0.003c-1.33,0-4.033-0.023-7.355-0.179c-14.266-2.551-27.158-12.647-33.643-26.305
	c-0.321-0.734-0.652-1.463-0.947-2.11c-0.203-0.487-0.402-0.979-0.59-1.473l-0.823-1.937h-0.166
	c-7.191-15.118-16.283-29.297-27.062-42.209l26.683-26.683c7.019-7.018,7.018-18.438-0.001-25.457
	c-3.389-3.388-7.909-5.253-12.728-5.253c-4.819,0-9.339,1.866-12.728,5.255l-26.681,26.68
	c-35.813-29.901-81.105-46.333-127.864-46.333c-50.898,0-99.371,19.159-136.49,53.948C81.133,156.237,59.125,201.2,54.621,249.748
	H18c-9.925,0-18,8.075-18,18s8.075,18,18,18h36.509c4.245,49.397,26.485,94.95,62.94,128.859l-11.313,42.217
	c-2.272,8.482-1.091,17.368,3.329,25.022c4.419,7.654,11.524,13.121,20.007,15.394c2.777,0.744,5.634,1.121,8.493,1.121
	c14.938,0,28.065-10.057,31.923-24.456l5.777-21.56c24.627,10.434,50.761,15.735,77.745,15.735c17.283,0,34.426-2.215,51.002-6.586
	l3.325,12.41c3.858,14.399,16.985,24.456,31.923,24.456c2.86,0,5.718-0.377,8.494-1.122c8.482-2.271,15.587-7.738,20.006-15.393
	s5.602-16.54,3.328-25.022l-6.165-23.008c1.217-0.796,2.859-1.902,3.794-2.663c2.801-1.996,5.685-4.173,8.572-6.473
	c16.012-10.931,34.68-17.475,54.005-18.933h21.682c9.119,0,16.283-7.153,16.435-16.338l30.002-157.613v-0.283
	C499.813,222.112,492.593,214.748,483.376,214.748z M309.483,445.426c-1.966,0.604-4.937,1.519-5.834,1.77
	c-16.291,4.569-33.194,6.886-50.239,6.886c-25.069,0-49.382-4.907-72.262-14.585c-1.392-0.591-2.776-1.196-4.151-1.819
	c-0.846-0.383-3.659-1.74-5.52-2.639l-5.024-2.407l-3.126,11.67l-6.962,25.981c-2.221,8.289-9.788,14.079-18.4,14.079
	c-1.607,0-3.217-0.209-4.801-0.626l-0.07-0.018c-4.871-1.306-8.957-4.456-11.505-8.871c-2.55-4.416-3.235-9.529-1.93-14.399
	l11.259-42.019h0l2.265-8.453l-2.849-2.589c-1.711-1.547-4.296-3.886-5.053-4.607c-1.062-1.014-2.114-2.041-3.155-3.08
	c-17.054-17.055-30.443-36.912-39.795-59.021c-8.726-20.629-13.583-42.514-14.435-65.044l-0.109-2.887H18
	c-2.878,0-5.133-2.196-5.133-5s2.254-5,5.133-5h49.815l0.128-2.865c0.989-22.058,5.83-43.5,14.387-63.733
	c9.352-22.108,22.741-41.966,39.796-59.021c17.054-17.054,36.911-30.443,59.02-39.794c22.882-9.679,47.195-14.586,72.264-14.586
	c21.043,0,41.684,3.491,61.349,10.375c19.009,6.653,36.737,16.336,52.694,28.778c2.138,1.667,4.283,3.418,6.375,5.203
	c0.64,0.546,2.666,2.347,4.018,3.548l3.211,2.843l35.996-35.996c0.958-0.958,2.247-1.485,3.63-1.485s2.672,0.527,3.662,1.517
	c1.967,2.001,1.952,5.244-0.031,7.228l-36.002,36l2.957,3.338c1.198,1.346,2.907,3.266,3.436,3.885
	c4.761,5.582,9.233,11.5,13.295,17.592c5.466,8.2,10.308,16.897,14.394,25.849l0.087,0.219c0.064,0.166,0.13,0.33,0.2,0.494
	c9.137,21.184,31.105,35.896,54.758,36.612h5.938c1.585,0,2.345,1.23,2.429,2.523l-29.992,157.56v0.283
	c0,1.215-0.638,2.634-2.437,2.634h-21.794l-0.816,0.029c-21.855,1.628-42.973,9.03-61.077,21.413l-0.64,0.474
	c-2.746,2.19-5.483,4.258-8.134,6.144l-0.662,0.509c-0.325,0.27-2.052,1.457-3.973,2.672l-0.156,0.103
	c-0.316,0.21-1.876,1.206-3.198,2.051c-0.923,0.59-1.734,1.107-1.956,1.253l-1.824,1.188l8.82,32.901
	c1.303,4.862,0.617,9.97-1.931,14.382c-2.544,4.407-6.63,7.555-11.462,8.849l-0.122,0.029c-1.567,0.412-3.179,0.621-4.791,0.621
	c-8.612,0-16.179-5.79-18.4-14.081l-7.046-26.3L309.483,445.426z"/>
</svg>
