<?xml version="1.0" encoding="utf-8"?>
<!-- Generator: Adobe Illustrator 16.0.0, SVG Export Plug-In . SVG Version: 6.00 Build 0)  -->
<!DOCTYPE svg PUBLIC "-//W3C//DTD SVG 1.1//EN" "http://www.w3.org/Graphics/SVG/1.1/DTD/svg11.dtd">
<svg version="1.1" id="Шар_1" xmlns="http://www.w3.org/2000/svg" xmlns:xlink="http://www.w3.org/1999/xlink" x="0px" y="0px"
	 width="1920px" height="2833px" viewBox="0 0 1920 2833" enable-background="new 0 0 1920 2833" xml:space="preserve">
<g>
	<path fill="#5776B5" d="M1705.33,1232c14.336,0,25.67,11.992,25.67,26.328V1636.5c0,14.337-11.334,26.5-25.67,26.5H211.562
		c-14.336,0-25.562-12.163-25.562-26.5v-378.172c0-14.336,11.226-26.328,25.562-26.328H1705 M1705.33,1208H211.562
		c-27.5,0-49.562,22.828-49.562,50.328V1636.5c0,27.5,22.062,50.5,49.562,50.5H1705.33c27.5,0,49.67-23,49.67-50.5v-378.172
		C1755,1230.828,1732.83,1208,1705.33,1208L1705.33,1208z"/>
</g>
<g>
	<path fill="#5776B5" d="M1320,1069c0,16.568-13.432,30-30,30H631c-16.568,0-30-13.432-30-30l0,0c0-16.568,13.432-30,30-30h659
		C1306.568,1039,1320,1052.432,1320,1069L1320,1069z"/>
</g>
<g>
	<g>
		<g>
			<path fill="#5776B5" d="M1756,1896c0,6.627-5.373,12-12,12h-695c-6.627,0-12-5.373-12-12l0,0c0-6.627,5.373-12,12-12h695
				C1750.627,1884,1756,1889.373,1756,1896L1756,1896z"/>
		</g>
		<g>
			<path fill="#5776B5" d="M1756,1826c0,6.627-5.373,12-12,12h-695c-6.627,0-12-5.373-12-12l0,0c0-6.627,5.373-12,12-12h695
				C1750.627,1814,1756,1819.373,1756,1826L1756,1826z"/>
		</g>
		<g>
			<path fill="#5776B5" d="M1756,1756c0,6.627-5.373,12-12,12h-695c-6.627,0-12-5.373-12-12l0,0c0-6.627,5.373-12,12-12h695
				C1750.627,1744,1756,1749.373,1756,1756L1756,1756z"/>
		</g>
	</g>
	<g>
		<g>
			<path fill="#5776B5" d="M883,1896c0,6.627-5.373,12-12,12H176c-6.627,0-12-5.373-12-12l0,0c0-6.627,5.373-12,12-12h695
				C877.627,1884,883,1889.373,883,1896L883,1896z"/>
		</g>
		<g>
			<path fill="#5776B5" d="M883,1826c0,6.627-5.373,12-12,12H176c-6.627,0-12-5.373-12-12l0,0c0-6.627,5.373-12,12-12h695
				C877.627,1814,883,1819.373,883,1826L883,1826z"/>
		</g>
		<g>
			<path fill="#5776B5" d="M883,1756c0,6.627-5.373,12-12,12H176c-6.627,0-12-5.373-12-12l0,0c0-6.627,5.373-12,12-12h695
				C877.627,1744,883,1749.373,883,1756L883,1756z"/>
		</g>
	</g>
</g>
<g>
	<g>
		<path fill="#FFFFFF" d="M1395.091,581.074c-82.469,0-149.562-72.008-149.562-160.518c0-88.511,67.093-160.521,149.562-160.521
			c82.47,0,149.564,72.01,149.564,160.521C1544.655,509.066,1477.561,581.074,1395.091,581.074z M1395.091,277.548
			c-73.472,0-133.245,64.153-133.245,143.008c0,78.854,59.773,143.005,133.245,143.005c73.473,0,133.248-64.152,133.248-143.005
			C1528.339,341.702,1468.563,277.548,1395.091,277.548z"/>
		<path fill="#FFFFFF" d="M1395.091,586.475c-85.446,0-154.962-74.431-154.962-165.918c0-91.489,69.516-165.921,154.962-165.921
			c85.448,0,154.965,74.432,154.965,165.921C1550.056,512.044,1480.539,586.475,1395.091,586.475z M1395.091,265.436
			c-79.491,0-144.161,69.587-144.161,155.121c0,85.532,64.67,155.117,144.161,155.117c79.492,0,144.164-69.585,144.164-155.117
			C1539.255,335.023,1474.583,265.436,1395.091,265.436z M1395.091,568.962c-76.449,0-138.646-66.575-138.646-148.406
			c0-81.833,62.196-148.409,138.646-148.409c76.451,0,138.648,66.576,138.648,148.409
			C1533.739,502.388,1471.542,568.962,1395.091,568.962z M1395.091,282.949c-70.494,0-127.845,61.73-127.845,137.608
			c0,75.875,57.351,137.605,127.845,137.605c70.495,0,127.848-61.729,127.848-137.605
			C1522.938,344.679,1465.586,282.949,1395.091,282.949z"/>
	</g>
</g>
<g>
	<g>
		<path fill="#FFFFFF" d="M1478.795,567.268c39.248,0,75.558,15.371,103.526,45.391c27.97,30.017,42.665,68.587,42.665,110.712
			v179.675c0,0.77-0.016,1.538-0.025,2.307h13.999c0.009-0.769,0.026-1.536,0.026-2.307V723.37
			c0-95.634-71.088-172.202-160.191-172.202h-8.942c-9.574,6.44-19.912,11.806-30.835,16.099h39.4H1478.795z"/>
		<path fill="#FFFFFF" d="M1644.397,910.853h-25.007l0.08-6.209c0.008-0.532,0.016-1.065,0.016-1.598V723.37
			c0-41.057-14.243-78.044-41.188-106.962c-26.6-28.55-61.007-43.64-99.503-43.64h-68.808l27.019-10.619
			c10.644-4.184,20.662-9.413,29.777-15.544l1.392-0.937h10.62c44.624,0,86.366,18.465,117.538,51.993
			c31.052,33.401,48.153,78.045,48.153,125.708v179.675c0,0.543-0.008,1.084-0.017,1.626L1644.397,910.853z M1630.486,899.853h3
			V723.37c0-91.919-69.395-166.702-154.691-166.702h-7.281c-2.7,1.774-5.471,3.475-8.307,5.099h15.588
			c41.627,0,78.817,16.301,107.551,47.142c28.877,30.991,44.141,70.571,44.141,114.461V899.853z"/>
	</g>
	<g>
		<path fill="#FFFFFF" d="M1162.014,905.353c-0.011-0.769-0.027-1.537-0.027-2.307V723.37c0-42.125,16.301-80.695,44.27-110.712
			c27.969-30.02,65.884-45.391,105.132-45.391h39.777c-10.923-4.293-21.262-9.659-30.833-16.099h-8.944
			c-89.104,0-164.401,76.568-164.401,172.202v179.675c0,0.771,0.019,1.538,0.028,2.307H1162.014z"/>
		<path fill="#FFFFFF" d="M1167.591,910.853h-26.007l-0.08-6.15c-0.009-0.552-0.018-1.104-0.018-1.657V723.37
			c0-47.429,17.873-92.098,50.326-125.78c32.262-33.482,74.728-51.922,119.575-51.922h10.622l1.393,0.937
			c9.109,6.129,19.127,11.359,29.774,15.544l27.019,10.619h-68.808c-38.981,0-74.889,15.498-101.107,43.64
			c-27.597,29.617-42.794,67.604-42.794,106.963v179.675c0,0.541,0.009,1.08,0.018,1.62L1167.591,910.853z M1152.486,899.853h4
			V723.37c0-42.151,16.246-82.801,45.746-114.461c28.322-30.399,67.088-47.141,109.155-47.141h15.588
			c-2.835-1.624-5.605-3.325-8.305-5.099h-7.283c-87.618,0-158.901,74.782-158.901,166.702V899.853z"/>
	</g>
</g>
<g>
	<path fill="#5776B5" d="M1908,927c0,6.627-5.373,12-12,12H17c-6.627,0-12-5.373-12-12v-10c0-6.627,5.373-12,12-12h1879
		c6.627,0,12,5.373,12,12V927z"/>
</g>
<g>
	<path fill="#5776B5" d="M1920,110c0,6.627-5.373,12-12,12H12c-6.627,0-12-5.373-12-12v-2c0-6.627,5.373-12,12-12h1896
		c6.627,0,12,5.373,12,12V110z"/>
</g>
<g>
	<path fill="#5776B5" d="M1851.726,32c9.453,0,18.19,3.947,24.968,10.723c6.775,6.776,10.307,15.929,10.307,25.382v2696.583
		c0,9.453-3.531,18.21-10.307,24.985c-6.777,6.775-15.515,10.326-24.968,10.326H68.936c-9.454,0-18.521-3.551-25.298-10.326
		C36.862,2782.898,33,2774.142,33,2764.688V68.105c0-9.454,3.862-18.606,10.638-25.382C50.414,35.947,59.482,32,68.936,32H1852
		 M1851.726,0H68.936C31.203,0,0,30.372,0,68.105v2696.583C0,2802.421,31.203,2833,68.936,2833h1782.79
		c37.732,0,68.274-30.579,68.274-68.312V68.105C1920,30.372,1889.458,0,1851.726,0L1851.726,0z"/>
</g>
<g>
	<g>
		<path fill="#5776B5" d="M521,613c0,6.627-5.373,12-12,12H174c-6.627,0-12-5.373-12-12v-2c0-6.627,5.373-12,12-12h335
			c6.627,0,12,5.373,12,12V613z"/>
	</g>
	<g>
		<path fill="#5776B5" d="M881,538c0,6.627-5.373,12-12,12H174c-6.627,0-12-5.373-12-12v-2c0-6.627,5.373-12,12-12h695
			c6.627,0,12,5.373,12,12V538z"/>
	</g>
	<g>
		<path fill="#5776B5" d="M881,463c0,6.627-5.373,12-12,12H174c-6.627,0-12-5.373-12-12v-2c0-6.627,5.373-12,12-12h695
			c6.627,0,12,5.373,12,12V463z"/>
	</g>
</g>
<g>
	<g>
		<g>
			<path fill="#5776B5" d="M1540.33,2103.5c33.49,0,65.086,13.152,88.967,37.033s37.033,55.477,37.033,88.967
				s-13.152,65.086-37.033,88.967s-55.477,37.033-88.967,37.033s-65.086-13.152-88.967-37.033s-37.033-55.477-37.033-88.967
				s13.152-65.086,37.033-88.967S1506.84,2103.5,1540.33,2103.5 M1540.33,2079.5c-82.5,0-150,67.5-150,150s67.5,150,150,150
				s150-67.5,150-150S1622.83,2079.5,1540.33,2079.5L1540.33,2079.5z"/>
		</g>
		<g>
			<path fill="#5776B5" d="M1648,2600c0,6.627-5.373,12-12,12h-191c-6.627,0-12-5.373-12-12l0,0c0-6.627,5.373-12,12-12h191
				C1642.627,2588,1648,2593.373,1648,2600L1648,2600z"/>
		</g>
		<g>
			<path fill="#5776B5" d="M1755,2530c0,6.627-5.373,12-12,12h-406c-6.627,0-12-5.373-12-12l0,0c0-6.627,5.373-12,12-12h406
				C1749.627,2518,1755,2523.373,1755,2530L1755,2530z"/>
		</g>
		<g>
			<path fill="#5776B5" d="M1755,2460c0,6.627-5.373,12-12,12h-406c-6.627,0-12-5.373-12-12l0,0c0-6.627,5.373-12,12-12h406
				C1749.627,2448,1755,2453.373,1755,2460L1755,2460z"/>
		</g>
	</g>
	<g>
		<g>
			<path fill="#5776B5" d="M380.331,2103.5c33.49,0,65.086,13.152,88.967,37.033c23.881,23.881,37.033,55.477,37.033,88.967
				s-13.152,65.086-37.033,88.967c-23.881,23.881-55.477,37.033-88.967,37.033s-65.086-13.152-88.967-37.033
				c-23.881-23.881-37.033-55.477-37.033-88.967s13.152-65.086,37.033-88.967C315.245,2116.652,346.84,2103.5,380.331,2103.5
				 M380.331,2079.5c-82.5,0-150,67.5-150,150s67.5,150,150,150s150-67.5,150-150S462.831,2079.5,380.331,2079.5L380.331,2079.5z"/>
		</g>
		<g>
			<path fill="#5776B5" d="M488,2600c0,6.627-5.373,12-12,12H285c-6.627,0-12-5.373-12-12l0,0c0-6.627,5.373-12,12-12h191
				C482.627,2588,488,2593.373,488,2600L488,2600z"/>
		</g>
		<g>
			<path fill="#5776B5" d="M595,2530c0,6.627-5.373,12-12,12H177c-6.627,0-12-5.373-12-12l0,0c0-6.627,5.373-12,12-12h406
				C589.627,2518,595,2523.373,595,2530L595,2530z"/>
		</g>
		<g>
			<path fill="#5776B5" d="M595,2460c0,6.627-5.373,12-12,12H177c-6.627,0-12-5.373-12-12l0,0c0-6.627,5.373-12,12-12h406
				C589.627,2448,595,2453.373,595,2460L595,2460z"/>
		</g>
	</g>
	<g>
		<g>
			<path fill="#5776B5" d="M950.33,2103.5c33.49,0,65.086,13.152,88.967,37.033s37.033,55.477,37.033,88.967
				s-13.152,65.086-37.033,88.967S983.82,2355.5,950.33,2355.5c-33.49,0-65.085-13.152-88.967-37.033
				c-23.881-23.881-37.033-55.477-37.033-88.967s13.152-65.086,37.033-88.967C885.245,2116.652,916.84,2103.5,950.33,2103.5
				 M950.33,2079.5c-82.5,0-150,67.5-150,150s67.5,150,150,150c82.5,0,150-67.5,150-150S1032.83,2079.5,950.33,2079.5L950.33,2079.5
				z"/>
		</g>
		<g>
			<path fill="#5776B5" d="M1058,2600c0,6.627-5.373,12-12,12H855c-6.627,0-12-5.373-12-12l0,0c0-6.627,5.373-12,12-12h191
				C1052.627,2588,1058,2593.373,1058,2600L1058,2600z"/>
		</g>
		<g>
			<path fill="#5776B5" d="M1165,2530c0,6.627-5.373,12-12,12H747c-6.627,0-12-5.373-12-12l0,0c0-6.627,5.373-12,12-12h406
				C1159.627,2518,1165,2523.373,1165,2530L1165,2530z"/>
		</g>
		<g>
			<path fill="#5776B5" d="M1165,2460c0,6.627-5.373,12-12,12H747c-6.627,0-12-5.373-12-12l0,0c0-6.627,5.373-12,12-12h406
				C1159.627,2448,1165,2453.373,1165,2460L1165,2460z"/>
		</g>
	</g>
</g>
</svg>
