<?xml version="1.0" encoding="utf-8"?>
<!-- Generator: Adobe Illustrator 16.0.0, SVG Export Plug-In . SVG Version: 6.00 Build 0)  -->
<!DOCTYPE svg PUBLIC "-//W3C//DTD SVG 1.1//EN" "http://www.w3.org/Graphics/SVG/1.1/DTD/svg11.dtd">
<svg version="1.1" id="Шар_1" xmlns="http://www.w3.org/2000/svg" xmlns:xlink="http://www.w3.org/1999/xlink" x="0px" y="0px"
	 width="1920px" height="2833px" viewBox="0 0 1920 2833" enable-background="new 0 0 1920 2833" xml:space="preserve">
<path fill="#5776B5" d="M1320,1019c0,16.568-13.432,30-30,30H631c-16.568,0-30-13.432-30-30l0,0c0-16.568,13.432-30,30-30h659
	C1306.568,989,1320,1002.432,1320,1019L1320,1019z"/>
<path fill="#5776B5" d="M1627,2653c0,11.046-8.954,20-20,20h-184c-11.046,0-20-8.954-20-20v-43c0-11.046,8.954-20,20-20h184
	c11.046,0,20,8.954,20,20V2653z"/>
<path fill="#5776B5" d="M1705.41,2005c14.336,0,25.59,11.992,25.59,26.328V2411.5c0,14.336-11.254,26.5-25.59,26.5h-380.172
	c-14.336,0-26.238-12.164-26.238-26.5v-380.172c0-14.336,11.902-26.328,26.238-26.328H1705 M1705.41,1981h-380.172
	c-27.5,0-50.238,22.828-50.238,50.328V2411.5c0,27.5,22.738,50.5,50.238,50.5h380.172c27.5,0,49.59-23,49.59-50.5v-380.172
	C1755,2003.828,1732.91,1981,1705.41,1981L1705.41,1981z"/>
<path fill="#5776B5" d="M1730,2531c0,6.627-5.373,12-12,12h-406c-6.627,0-12-5.373-12-12l0,0c0-6.627,5.373-12,12-12h406
	C1724.627,2519,1730,2524.373,1730,2531L1730,2531z"/>
<path fill="#5776B5" d="M1074,2653c0,11.046-8.954,20-20,20H870c-11.046,0-20-8.954-20-20v-43c0-11.046,8.954-20,20-20h184
	c11.046,0,20,8.954,20,20V2653z"/>
<path fill="#5776B5" d="M1152.41,2005c14.336,0,25.59,11.992,25.59,26.328V2411.5c0,14.336-11.254,26.5-25.59,26.5H772.238
	c-14.336,0-26.238-12.164-26.238-26.5v-380.172c0-14.336,11.902-26.328,26.238-26.328H1152 M1152.41,1981H772.238
	c-27.5,0-50.238,22.828-50.238,50.328V2411.5c0,27.5,22.738,50.5,50.238,50.5h380.172c27.5,0,49.59-23,49.59-50.5v-380.172
	C1202,2003.828,1179.91,1981,1152.41,1981L1152.41,1981z"/>
<path fill="#5776B5" d="M1177,2531c0,6.627-5.373,12-12,12H759c-6.627,0-12-5.373-12-12l0,0c0-6.627,5.373-12,12-12h406
	C1171.627,2519,1177,2524.373,1177,2531L1177,2531z"/>
<path fill="#5776B5" d="M517,2653c0,11.046-8.954,20-20,20H313c-11.046,0-20-8.954-20-20v-43c0-11.046,8.954-20,20-20h184
	c11.046,0,20,8.954,20,20V2653z"/>
<path fill="#5776B5" d="M595.41,2005c14.336,0,25.59,11.992,25.59,26.328V2411.5c0,14.336-11.253,26.5-25.59,26.5H215.238
	c-14.336,0-26.238-12.164-26.238-26.5v-380.172c0-14.336,11.902-26.328,26.238-26.328H595 M595.41,1981H215.238
	c-27.5,0-50.238,22.828-50.238,50.328V2411.5c0,27.5,22.738,50.5,50.238,50.5H595.41c27.5,0,49.59-23,49.59-50.5v-380.172
	C645,2003.828,622.91,1981,595.41,1981L595.41,1981z"/>
<path fill="#5776B5" d="M620,2531c0,6.627-5.373,12-12,12H202c-6.627,0-12-5.373-12-12l0,0c0-6.627,5.373-12,12-12h406
	C614.627,2519,620,2524.373,620,2531L620,2531z"/>
<path fill="#5776B5" d="M1627,1878c0,11.046-8.954,20-20,20h-184c-11.046,0-20-8.954-20-20v-43c0-11.046,8.954-20,20-20h184
	c11.046,0,20,8.954,20,20V1878z"/>
<path fill="#5776B5" d="M1705.41,1230c14.336,0,25.59,11.992,25.59,26.328V1636.5c0,14.336-11.254,26.5-25.59,26.5h-380.172
	c-14.336,0-26.238-12.164-26.238-26.5v-380.172c0-14.336,11.902-26.328,26.238-26.328H1705 M1705.41,1206h-380.172
	c-27.5,0-50.238,22.828-50.238,50.328V1636.5c0,27.5,22.738,50.5,50.238,50.5h380.172c27.5,0,49.59-23,49.59-50.5v-380.172
	C1755,1228.828,1732.91,1206,1705.41,1206L1705.41,1206z"/>
<path fill="#5776B5" d="M1730,1756c0,6.627-5.373,12-12,12h-406c-6.627,0-12-5.373-12-12l0,0c0-6.627,5.373-12,12-12h406
	C1724.627,1744,1730,1749.373,1730,1756L1730,1756z"/>
<path fill="#5776B5" d="M1074,1878c0,11.046-8.954,20-20,20H870c-11.046,0-20-8.954-20-20v-43c0-11.046,8.954-20,20-20h184
	c11.046,0,20,8.954,20,20V1878z"/>
<path fill="#5776B5" d="M1152.41,1230c14.336,0,25.59,11.992,25.59,26.328V1636.5c0,14.336-11.254,26.5-25.59,26.5H772.238
	c-14.336,0-26.238-12.164-26.238-26.5v-380.172c0-14.336,11.902-26.328,26.238-26.328H1152 M1152.41,1206H772.238
	c-27.5,0-50.238,22.828-50.238,50.328V1636.5c0,27.5,22.738,50.5,50.238,50.5h380.172c27.5,0,49.59-23,49.59-50.5v-380.172
	C1202,1228.828,1179.91,1206,1152.41,1206L1152.41,1206z"/>
<path fill="#5776B5" d="M1177,1756c0,6.627-5.373,12-12,12H759c-6.627,0-12-5.373-12-12l0,0c0-6.627,5.373-12,12-12h406
	C1171.627,1744,1177,1749.373,1177,1756L1177,1756z"/>
<path fill="#5776B5" d="M517,1878c0,11.046-8.954,20-20,20H313c-11.046,0-20-8.954-20-20v-43c0-11.046,8.954-20,20-20h184
	c11.046,0,20,8.954,20,20V1878z"/>
<path fill="#5776B5" d="M595.41,1230c14.336,0,25.59,11.992,25.59,26.328V1636.5c0,14.336-11.253,26.5-25.59,26.5H215.238
	c-14.336,0-26.238-12.164-26.238-26.5v-380.172c0-14.336,11.902-26.328,26.238-26.328H595 M595.41,1206H215.238
	c-27.5,0-50.238,22.828-50.238,50.328V1636.5c0,27.5,22.738,50.5,50.238,50.5H595.41c27.5,0,49.59-23,49.59-50.5v-380.172
	C645,1228.828,622.91,1206,595.41,1206L595.41,1206z"/>
<path fill="#5776B5" d="M620,1756c0,6.627-5.373,12-12,12H202c-6.627,0-12-5.373-12-12l0,0c0-6.627,5.373-12,12-12h406
	C614.627,1744,620,1749.373,620,1756L620,1756z"/>
<path fill="#5776B5" d="M1908,874c0,6.627-5.373,12-12,12H17c-6.627,0-12-5.373-12-12v-8c0-6.627,5.373-12,12-12h1879
	c6.627,0,12,5.373,12,12V874z"/>
<path fill="#5776B5" d="M1920,103c0,6.627-5.373,12-12,12H12c-6.627,0-12-5.373-12-12l0,0c0-6.627,5.373-12,12-12h1896
	C1914.627,91,1920,96.373,1920,103L1920,103z"/>
<path fill="#5776B5" d="M1851.719,32c9.453,0,18.195,3.947,24.971,10.723c6.775,6.775,10.311,15.929,10.311,25.382v2696.583
	c0,9.453-3.535,18.21-10.311,24.985S1861.172,2800,1851.719,2800H68.929c-9.453,0-18.519-3.551-25.295-10.326
	C36.859,2782.898,33,2774.142,33,2764.688V68.105c0-9.453,3.859-18.606,10.635-25.382S59.476,32,68.929,32H1852 M1851.719,0H68.929
	C31.196,0,0,30.372,0,68.105v2696.583C0,2802.421,31.196,2833,68.929,2833h1782.79c37.733,0,68.281-30.579,68.281-68.312V68.105
	C1920,30.372,1889.452,0,1851.719,0L1851.719,0z"/>
<g>
	<path fill="#5776B5" d="M527,578c0,6.627-5.373,12-12,12H180c-6.627,0-12-5.373-12-12l0,0c0-6.627,5.373-12,12-12h335
		C521.627,566,527,571.373,527,578L527,578z"/>
	<path fill="#5776B5" d="M887,507c0,6.627-5.373,12-12,12H180c-6.627,0-12-5.373-12-12l0,0c0-6.627,5.373-12,12-12h695
		C881.627,495,887,500.373,887,507L887,507z"/>
	<path fill="#5776B5" d="M887,436c0,6.627-5.373,12-12,12H180c-6.627,0-12-5.373-12-12l0,0c0-6.627,5.373-12,12-12h695
		C881.627,424,887,429.373,887,436L887,436z"/>
</g>
<g>
	<path fill="#FFFFFF" d="M1223.574,494.049c6.563,0,12.713,2.568,17.318,7.231c4.686,4.745,7.266,11.126,7.266,17.969
		s-2.58,13.224-7.266,17.969c-4.605,4.664-10.756,7.231-17.318,7.231c-6.563,0-12.715-2.568-17.319-7.231
		c-4.685-4.745-7.265-11.126-7.265-17.969s2.58-13.224,7.265-17.969C1210.859,496.618,1217.011,494.049,1223.574,494.049
		 M1223.574,470.049c-12.469,0-24.938,4.79-34.396,14.368c-18.917,19.158-18.917,50.506,0,69.664
		c9.459,9.579,21.928,14.368,34.396,14.368c12.468,0,24.937-4.79,34.396-14.368c18.918-19.158,18.918-50.506,0-69.664
		C1248.511,474.839,1236.042,470.049,1223.574,470.049L1223.574,470.049z"/>
	<path fill="#FFFFFF" d="M1267,323v24h421.43c14.337,0,26,11.474,26,25.811l-0.002,294.137c0,14.336-11.664,26.053-26,26.053
		h-421.541c-20.916,0-53.344-13.707-68.034-28.596l-124.339-126.087c-4.879-4.945-7.564-11.628-7.562-18.754
		c0.003-7.125,2.693-13.789,7.576-18.729l124.339-125.771C1213.574,360.182,1246,346.62,1267,346.62V323 M1266.885,323
		c-27.5,0-65.815,15.814-85.146,35.374L1057.458,484.04c-19.33,19.561-19.343,51.533-0.027,71.108l124.338,126.137
		c19.315,19.575,57.618,35.715,85.118,35.715h421.541c27.5,0,50-22.647,50-50.147l0.002-293.968c0-27.5-22.5-49.884-50-49.884
		H1266.885L1266.885,323z"/>
</g>
</svg>
