<?xml version="1.0" encoding="utf-8"?>
<!-- Generator: Adobe Illustrator 16.0.0, SVG Export Plug-In . SVG Version: 6.00 Build 0)  -->
<!DOCTYPE svg PUBLIC "-//W3C//DTD SVG 1.1//EN" "http://www.w3.org/Graphics/SVG/1.1/DTD/svg11.dtd">
<svg version="1.1" id="Шар_1" xmlns="http://www.w3.org/2000/svg" xmlns:xlink="http://www.w3.org/1999/xlink" x="0px" y="0px"
	 width="1920px" height="2833px" viewBox="0 0 1920 2833" enable-background="new 0 0 1920 2833" xml:space="preserve">
<g>
	<path fill="#5776B5" d="M1695.607,1711c14.336,0,26.393,11.992,26.393,26.328V2117.5c0,14.336-12.057,26.5-26.393,26.5h-380.172
		c-14.336,0-26.436-12.164-26.436-26.5v-380.172c0-14.336,12.1-26.328,26.436-26.328H1696 M1695.607,1687h-380.172
		c-27.5,0-50.436,22.828-50.436,50.328V2117.5c0,27.5,22.936,50.5,50.436,50.5h380.172c27.5,0,50.393-23,50.393-50.5v-380.172
		C1746,1709.828,1723.107,1687,1695.607,1687L1695.607,1687z"/>
</g>
<g>
	<path fill="#5776B5" d="M597.607,2192c14.336,0,26.393,11.992,26.393,26.328V2598.5c0,14.336-12.056,26.5-26.393,26.5H217.436
		c-14.336,0-26.436-12.164-26.436-26.5v-380.172c0-14.336,12.099-26.328,26.436-26.328H598 M597.607,2168H217.436
		c-27.5,0-50.436,22.828-50.436,50.328V2598.5c0,27.5,22.936,50.5,50.436,50.5h380.172c27.5,0,50.393-23,50.393-50.5v-380.172
		C648,2190.828,625.107,2168,597.607,2168L597.607,2168z"/>
</g>
<g>
	<path fill="#5776B5" d="M1466,2478c0,6.627-5.373,12-12,12H759c-6.627,0-12-5.373-12-12l0,0c0-6.627,5.373-12,12-12h695
		C1460.627,2466,1466,2471.373,1466,2478L1466,2478z"/>
</g>
<g>
	<path fill="#5776B5" d="M1466,2408c0,6.627-5.373,12-12,12H759c-6.627,0-12-5.373-12-12l0,0c0-6.627,5.373-12,12-12h695
		C1460.627,2396,1466,2401.373,1466,2408L1466,2408z"/>
</g>
<g>
	<path fill="#5776B5" d="M1466,2338c0,6.627-5.373,12-12,12H759c-6.627,0-12-5.373-12-12l0,0c0-6.627,5.373-12,12-12h695
		C1460.627,2326,1466,2331.373,1466,2338L1466,2338z"/>
</g>
<g>
	<path fill="#5776B5" d="M597.607,1231c14.336,0,26.393,11.992,26.393,26.328V1637.5c0,14.336-12.056,26.5-26.393,26.5H217.436
		c-14.336,0-26.436-12.164-26.436-26.5v-380.172c0-14.336,12.099-26.328,26.436-26.328H598 M597.607,1207H217.436
		c-27.5,0-50.436,22.828-50.436,50.328V1637.5c0,27.5,22.936,50.5,50.436,50.5h380.172c27.5,0,50.393-23,50.393-50.5v-380.172
		C648,1229.828,625.107,1207,597.607,1207L597.607,1207z"/>
</g>
<g>
	<path fill="#5776B5" d="M1320,1019c0,16.568-13.432,30-30,30H631c-16.568,0-30-13.432-30-30l0,0c0-16.568,13.432-30,30-30h659
		C1306.568,989,1320,1002.432,1320,1019L1320,1019z"/>
</g>
<g>
	<path fill="#5776B5" d="M1165,2009c0,6.627-5.373,12-12,12H458c-6.627,0-12-5.373-12-12l0,0c0-6.627,5.373-12,12-12h695
		C1159.627,1997,1165,2002.373,1165,2009L1165,2009z"/>
</g>
<g>
	<path fill="#5776B5" d="M1165,1939c0,6.627-5.373,12-12,12H458c-6.627,0-12-5.373-12-12l0,0c0-6.627,5.373-12,12-12h695
		C1159.627,1927,1165,1932.373,1165,1939L1165,1939z"/>
</g>
<g>
	<path fill="#5776B5" d="M1165,1869c0,6.627-5.373,12-12,12H458c-6.627,0-12-5.373-12-12l0,0c0-6.627,5.373-12,12-12h695
		C1159.627,1857,1165,1862.373,1165,1869L1165,1869z"/>
</g>
<g>
	<path fill="#5776B5" d="M1466,1517c0,6.627-5.373,12-12,12H759c-6.627,0-12-5.373-12-12l0,0c0-6.627,5.373-12,12-12h695
		C1460.627,1505,1466,1510.373,1466,1517L1466,1517z"/>
</g>
<g>
	<path fill="#5776B5" d="M1466,1447c0,6.627-5.373,12-12,12H759c-6.627,0-12-5.373-12-12l0,0c0-6.627,5.373-12,12-12h695
		C1460.627,1435,1466,1440.373,1466,1447L1466,1447z"/>
</g>
<g>
	<path fill="#5776B5" d="M1466,1377c0,6.627-5.373,12-12,12H759c-6.627,0-12-5.373-12-12l0,0c0-6.627,5.373-12,12-12h695
		C1460.627,1365,1466,1370.373,1466,1377L1466,1377z"/>
</g>
<g>
	<path fill="#FFFFFF" d="M856,688H188c-17.645,0-32-14.355-32-32V554c0-17.645,14.355-32,32-32h668c17.645,0,32,14.355,32,32v102
		C888,673.645,873.645,688,856,688z M188,546c-4.411,0-8,3.589-8,8v102c0,4.411,3.589,8,8,8h668c4.411,0,8-3.589,8-8V554
		c0-4.411-3.589-8-8-8H188z"/>
</g>
<g>
	<path fill="#5776B5" d="M1908,864c0,6.627-5.373,12-12,12H17c-6.627,0-12-5.373-12-12v-8c0-6.627,5.373-12,12-12h1879
		c6.627,0,12,5.373,12,12V864z"/>
</g>
<g>
	<path fill="#5776B5" d="M1920,102c0,6.627-5.373,12-12,12H12c-6.627,0-12-5.373-12-12l0,0c0-6.627,5.373-12,12-12h1896
		C1914.627,90,1920,95.373,1920,102L1920,102z"/>
</g>
<g>
	<path fill="#5776B5" d="M1851.535,32c9.453,0,18.286,3.947,25.062,10.723c6.776,6.776,10.403,15.929,10.403,25.382v2696.583
		c0,9.453-3.627,18.21-10.402,24.985c-6.776,6.775-15.609,10.326-25.063,10.326H68.745c-9.453,0-18.426-3.551-25.203-10.326
		C36.767,2782.898,33,2774.142,33,2764.688V68.105c0-9.453,3.767-18.606,10.542-25.382S59.292,32,68.745,32H1852 M1851.535,0H68.745
		C31.012,0,0,30.372,0,68.105v2696.583C0,2802.421,31.012,2833,68.745,2833h1782.791c37.732,0,68.465-30.579,68.465-68.312V68.105
		C1920,30.372,1889.268,0,1851.535,0L1851.535,0z"/>
</g>
<g>
	<g>
		<path fill="#5776B5" d="M516,432c0,6.627-5.373,12-12,12H169c-6.627,0-12-5.373-12-12l0,0c0-6.627,5.373-12,12-12h335
			C510.627,420,516,425.373,516,432L516,432z"/>
	</g>
	<g>
		<path fill="#5776B5" d="M876,362c0,6.627-5.373,12-12,12H169c-6.627,0-12-5.373-12-12l0,0c0-6.627,5.373-12,12-12h695
			C870.627,350,876,355.373,876,362L876,362z"/>
	</g>
	<g>
		<path fill="#5776B5" d="M876,292c0,6.627-5.373,12-12,12H169c-6.627,0-12-5.373-12-12l0,0c0-6.627,5.373-12,12-12h695
			C870.627,280,876,285.373,876,292L876,292z"/>
	</g>
</g>
<g>
	<path fill="#5776B5" d="M1301.896,260.796c13.54,0,26.324,5.328,35.998,15.002c9.674,9.674,15.002,22.458,15.002,35.999
		c0,13.54-5.328,26.324-15.002,35.998c-9.674,9.674-22.458,15.002-35.998,15.002s-26.324-5.328-35.998-15.002
		s-15.002-22.458-15.002-35.999c0-13.54,5.328-26.324,15.002-35.998C1275.571,266.124,1288.355,260.796,1301.896,260.796
		 M1301.896,236.796c-41.25,0-75,33.75-75,75v0c0,41.25,33.75,75,75,75s75-33.75,75-75v0
		C1376.896,270.546,1343.146,236.796,1301.896,236.796L1301.896,236.796z"/>
</g>
<g>
	<path fill="#5776B5" d="M1367.892,791.361l291.164-529.383c1.112-2.022,2.148-3.404,2.961-4.317
		c0.813,0.913,1.849,2.31,2.961,4.331l232.143,422.077v-48.196l-211.84-385.118c-6.397-11.632-14.83-17.377-23.264-17.377
		s-16.866,5.816-23.264,17.448l-284.111,516.445"/>
</g>
<g>
	<path fill="#5776B5" d="M971.772,843.5l209.349-380.602c1.151-2.095,2.226-3.505,3.067-4.451c0.842,0.946,1.915,2.392,3.066,4.486
		L1396.568,843.5h27.435c-0.203-0.39-0.394-0.777-0.609-1.169l-215.109-391.035c-6.627-12.048-15.361-18.001-24.096-18.001
		c-8.735,0-17.471,6.024-24.097,18.072L944.986,842.331c-0.216,0.392-0.407,0.78-0.609,1.169H971.772z"/>
</g>
</svg>
