<?xml version="1.0" encoding="utf-8"?>
<!-- Generator: Adobe Illustrator 16.0.0, SVG Export Plug-In . SVG Version: 6.00 Build 0)  -->
<!DOCTYPE svg PUBLIC "-//W3C//DTD SVG 1.1//EN" "http://www.w3.org/Graphics/SVG/1.1/DTD/svg11.dtd">
<svg version="1.1" id="Шар_1" xmlns="http://www.w3.org/2000/svg" xmlns:xlink="http://www.w3.org/1999/xlink" x="0px" y="0px"
	 width="640px" height="640px" viewBox="0 0 640 640" enable-background="new 0 0 640 640" xml:space="preserve">
<path d="M601.867,547.16c-0.719,0-1.306,0.588-1.306,1.307c0,0.72,0.587,1.308,1.306,1.308c0.718,0,1.305-0.588,1.305-1.308
	C603.172,547.748,602.585,547.16,601.867,547.16L601.867,547.16z"/>
<path fill="#FFFFFF" d="M215,582v7.5c0,14.336-11.765,26.5-26.102,26.5H50.206C35.869,616,24,603.836,24,589.5V450.628
	C24,436.291,35.869,425,50.206,425H57v-24h-6.794C22.706,401,0,423.128,0,450.628V589.5C0,617,22.706,640,50.206,640h138.693
	c27.5,0,50.102-23,50.102-50.5V582H215z"/>
<path fill="#FFFFFF" d="M320,496v36.455C320,546.791,307.904,558,293.567,558H107.135C92.798,558,81,546.791,81,532.455V345.811
	C81,331.474,92.798,320,107.135,320H143v-24h-35.865C79.635,296,57,318.31,57,345.811v186.645C57,559.955,79.635,582,107.135,582
	h186.433c27.5,0,50.433-22.045,50.433-49.545V496H320z"/>
<path fill="#FFFFFF" d="M454,358v88.41c0,14.336-12.01,25.59-26.347,25.59h-234.17C179.147,472,167,460.746,167,446.41V211.989
	C167,197.653,179.147,186,193.483,186H282v-24h-88.517c-27.5,0-50.483,22.489-50.483,49.989V446.41
	c0,27.5,22.983,49.59,50.483,49.59h234.17c27.5,0,50.347-22.09,50.347-49.59V358H454z"/>
<path fill="#2F90FF" d="M590.205,24C604.541,24,616,35.164,616,49.5v282.194C616,346.031,604.541,358,590.205,358H308.297
	C293.96,358,282,346.031,282,331.694V49.5c0-14.336,11.96-25.5,26.297-25.5H590 M590.205,0H308.297C280.797,0,258,22,258,49.5
	v282.194c0,27.5,22.797,50.306,50.297,50.306h281.908c27.5,0,49.795-22.806,49.795-50.306V49.5C640,22,617.705,0,590.205,0
	L590.205,0z"/>
</svg>
