<?xml version="1.0" encoding="utf-8"?>
<!-- Generator: Adobe Illustrator 16.0.0, SVG Export Plug-In . SVG Version: 6.00 Build 0)  -->
<!DOCTYPE svg PUBLIC "-//W3C//DTD SVG 1.1//EN" "http://www.w3.org/Graphics/SVG/1.1/DTD/svg11.dtd">
<svg version="1.1" id="Шар_1" xmlns="http://www.w3.org/2000/svg" xmlns:xlink="http://www.w3.org/1999/xlink" x="0px" y="0px"
	 width="494px" height="494px" viewBox="0 0 494 494" enable-background="new 0 0 494 494" xml:space="preserve">
<path fill="#FFFFFF" stroke="#FFFFFF" stroke-width="6" stroke-miterlimit="10" d="M237.001,269.626
	c-3.797-3.798-5.105-9.165-3.96-14.061l-65.475-65.475c-2.729-2.729-2.729-7.17,0-9.9c1.311-1.31,3.068-2.032,4.949-2.032
	c1.882,0,3.64,0.722,4.949,2.032l63.879,63.879l5.657-5.657l-63.879-63.878c-2.917-2.917-6.761-4.375-10.606-4.375
	c-3.845,0-7.689,1.458-10.606,4.375c-5.833,5.833-5.833,15.379,0,21.213l73.879,73.879c2.917,2.917,6.761,4.375,10.606,4.375
	c0.202,0,0.404-0.021,0.606-0.028C243.361,273.826,239.765,272.39,237.001,269.626z"/>
<g>
	<path fill="#FFFFFF" d="M247,12c31.729,0,62.504,6.212,91.468,18.463c27.982,11.835,53.115,28.782,74.701,50.368
		c21.587,21.586,38.532,46.719,50.368,74.701C475.788,184.496,482,215.271,482,247s-6.212,62.503-18.463,91.468
		c-11.836,27.981-28.782,53.115-50.368,74.701s-46.719,38.532-74.701,50.368C309.504,475.788,278.729,482,247,482
		c-31.729,0-62.503-6.212-91.467-18.463c-27.982-11.836-53.115-28.782-74.701-50.368c-21.586-21.586-38.533-46.72-50.369-74.701
		C18.212,309.503,12,278.729,12,247s6.212-62.504,18.463-91.468c11.836-27.982,28.782-53.115,50.369-74.701
		c21.586-21.586,46.719-38.532,74.701-50.368C184.497,18.212,215.271,12,247,12 M247,0C110.59,0,0,110.587,0,247
		c0,136.411,110.59,247,247,247c136.412,0,247-110.589,247-247C494,110.587,383.412,0,247,0L247,0z"/>
</g>
<g>
	<path fill="#2F90FF" stroke="#2F90FF" stroke-width="6" stroke-miterlimit="10" d="M371.746,127.897
		c1.882,0,3.639,0.722,4.949,2.032c2.729,2.729,2.729,7.17,0,9.899l-124.139,124.14c-1.31,1.311-3.067,2.032-4.949,2.032
		s-3.639-0.722-4.949-2.031c-2.729-2.729-2.729-7.171,0-9.9l124.139-124.14C368.106,128.619,369.864,127.897,371.746,127.897
		 M371.746,119.897c-3.845,0-7.689,1.458-10.606,4.375l-124.139,124.14c-5.833,5.834-5.833,15.38,0,21.214
		c2.917,2.917,6.762,4.375,10.606,4.375s7.689-1.458,10.606-4.375l124.139-124.141c5.833-5.833,5.833-15.379,0-21.213
		C379.436,121.355,375.591,119.897,371.746,119.897L371.746,119.897z"/>
</g>
<g>
	<path fill="#FFFFFF" d="M247,413.064c1.626,0,3,1.374,3,3s-1.374,3-3,3s-3-1.374-3-3S245.374,413.064,247,413.064 M247,401.064
		c-8.25,0-15,6.75-15,15s6.75,15,15,15s15-6.75,15-15S255.25,401.064,247,401.064L247,401.064z"/>
</g>
<g>
	<path fill="#FFFFFF" d="M247,71.065c1.626,0,3,1.374,3,3s-1.374,3-3,3s-3-1.374-3-3S245.374,71.065,247,71.065 M247,59.065
		c-8.25,0-15,6.75-15,15s6.75,15,15,15s15-6.75,15-15S255.25,59.065,247,59.065L247,59.065z"/>
</g>
<g>
	<path fill="#FFFFFF" d="M416.066,244c1.626,0,3,1.374,3,3s-1.374,3-3,3s-3-1.374-3-3S414.44,244,416.066,244 M416.066,232
		c-8.25,0-15,6.75-15,15s6.75,15,15,15s15-6.75,15-15S424.316,232,416.066,232L416.066,232z"/>
</g>
<g>
	<path fill="#FFFFFF" d="M74.066,244c1.626,0,3,1.374,3,3s-1.374,3-3,3s-3-1.374-3-3S72.44,244,74.066,244 M74.066,232
		c-8.25,0-15,6.75-15,15s6.75,15,15,15s15-6.75,15-15S82.316,232,74.066,232L74.066,232z"/>
</g>
<g>
	<path fill="#FFFFFF" d="M247,41c27.814,0,54.79,5.445,80.179,16.184c24.529,10.375,46.562,25.23,65.484,44.153
		s33.777,40.955,44.153,65.483C447.555,192.209,453,219.186,453,247c0,27.813-5.445,54.79-16.184,80.179
		c-10.376,24.529-25.23,46.561-44.153,65.483s-40.955,33.778-65.484,44.153C301.79,447.555,274.814,453,247,453
		c-27.813,0-54.79-5.445-80.178-16.185c-24.529-10.375-46.561-25.23-65.484-44.153c-18.923-18.923-33.778-40.955-44.154-65.483
		C46.445,301.79,41,274.813,41,247c0-27.814,5.445-54.79,16.184-80.179c10.375-24.529,25.231-46.561,44.154-65.483
		c18.923-18.923,40.955-33.778,65.484-44.153C192.21,46.445,219.187,41,247,41 M247,29C126.607,29,29,126.605,29,247
		c0,120.394,97.607,218,218,218c120.395,0,218-97.606,218-218C465,126.605,367.395,29,247,29L247,29z"/>
</g>
</svg>
